<svg xmlns="http://www.w3.org/2000/svg" viewBox="147.689 59.021 128.723 21.602" width="514.9" height="86.4" role="img" aria-label="biroLovšin">
<title>biroLovšin</title>
<path fill="#615e5e" d="M 150.675781 74.332031 C 150.675781 74.648438 150.734375 74.96875 150.792969 75.257812 C 151.285156 77.027344 152.761719 78.246094 154.617188 78.246094 C 157.285156 78.246094 158.878906 76.070312 158.878906 72.851562 C 158.878906 70.039062 157.429688 67.632812 154.703125 67.632812 C 152.964844 67.632812 151.34375 68.824219 150.820312 70.765625 C 150.761719 71.054688 150.675781 71.402344 150.675781 71.808594 Z M 148.152344 59.371094 L 150.675781 59.371094 L 150.675781 68.183594 L 150.734375 68.183594 C 151.632812 66.621094 153.253906 65.605469 155.515625 65.605469 C 158.996094 65.605469 161.460938 68.503906 161.429688 72.765625 C 161.429688 77.78125 158.273438 80.273438 155.140625 80.273438 C 153.113281 80.273438 151.488281 79.492188 150.445312 77.636719 L 150.355469 77.636719 L 150.242188 79.953125 L 148.039062 79.953125 C 148.09375 79 148.152344 77.578125 148.152344 76.332031 Z M 148.152344 59.371094"/>
<path fill="#615e5e" d="M 164.644531 65.925781 L 167.195312 65.925781 L 167.195312 79.957031 L 164.644531 79.957031 Z M 167.484375 61.980469 C 167.515625 62.851562 166.878906 63.546875 165.863281 63.546875 C 164.964844 63.546875 164.328125 62.851562 164.328125 61.980469 C 164.328125 61.082031 164.992188 60.386719 165.921875 60.386719 C 166.878906 60.386719 167.484375 61.082031 167.484375 61.980469"/>
<path fill="#615e5e" d="M 171.425781 70.300781 C 171.425781 68.648438 171.398438 67.226562 171.3125 65.925781 L 173.542969 65.925781 L 173.632812 68.675781 L 173.746094 68.675781 C 174.386719 66.792969 175.921875 65.605469 177.632812 65.605469 C 177.921875 65.605469 178.125 65.632812 178.355469 65.691406 L 178.355469 68.097656 C 178.097656 68.039062 177.835938 68.011719 177.488281 68.011719 C 175.691406 68.011719 174.414062 69.375 174.066406 71.285156 C 174.007812 71.636719 173.949219 72.039062 173.949219 72.476562 L 173.949219 79.957031 L 171.425781 79.957031 Z M 171.425781 70.300781"/>
<path fill="#615e5e" d="M 182.179688 72.96875 C 182.179688 76.042969 183.949219 78.363281 186.441406 78.363281 C 188.878906 78.363281 190.703125 76.070312 190.703125 72.910156 C 190.703125 70.53125 189.515625 67.519531 186.5 67.519531 C 183.484375 67.519531 182.179688 70.300781 182.179688 72.96875 M 193.3125 72.824219 C 193.3125 78.011719 189.71875 80.273438 186.324219 80.273438 C 182.527344 80.273438 179.601562 77.492188 179.601562 73.054688 C 179.601562 68.359375 182.671875 65.605469 186.558594 65.605469 C 190.585938 65.605469 193.3125 68.53125 193.3125 72.824219"/>
<path fill="#619cbc" d="M 196.324219 60.414062 L 200.757812 60.414062 L 200.757812 76.246094 L 208.53125 76.246094 L 208.53125 79.957031 L 196.324219 79.957031 Z M 196.324219 60.414062"/>
<path fill="#619cbc" d="M 214.46875 72.851562 C 214.46875 75.289062 215.484375 77.113281 217.367188 77.113281 C 219.078125 77.113281 220.179688 75.402344 220.179688 72.851562 C 220.179688 70.738281 219.367188 68.589844 217.367188 68.589844 C 215.25 68.589844 214.46875 70.765625 214.46875 72.851562 M 224.730469 72.707031 C 224.730469 77.898438 221.050781 80.273438 217.25 80.273438 C 213.105469 80.273438 209.917969 77.550781 209.917969 72.96875 C 209.917969 68.386719 212.933594 65.460938 217.484375 65.460938 C 221.832031 65.460938 224.730469 68.445312 224.730469 72.707031"/>
<path fill="#619cbc" d="M 230.46875 65.777344 L 232.382812 72.359375 C 232.730469 73.546875 232.988281 74.679688 233.191406 75.808594 L 233.28125 75.808594 C 233.511719 74.648438 233.742188 73.578125 234.0625 72.359375 L 235.890625 65.777344 L 240.527344 65.777344 L 235.25 79.957031 L 230.84375 79.957031 L 225.683594 65.777344 Z M 230.46875 65.777344"/>
<path fill="#619cbc" d="M 245.191406 64.011719 L 242.324219 59.605469 L 245.191406 59.605469 L 246.671875 62.125 L 246.726562 62.125 L 248.179688 59.605469 L 251.078125 59.605469 L 248.179688 64.011719 Z M 242.058594 76.101562 C 242.875 76.59375 244.554688 77.171875 245.859375 77.171875 C 247.191406 77.171875 247.742188 76.707031 247.742188 75.984375 C 247.742188 75.257812 247.308594 74.910156 245.65625 74.359375 C 242.726562 73.375 241.597656 71.78125 241.625 70.128906 C 241.625 67.460938 243.886719 65.460938 247.394531 65.460938 C 249.046875 65.460938 250.527344 65.835938 251.394531 66.269531 L 250.613281 69.316406 C 249.976562 68.96875 248.757812 68.503906 247.539062 68.503906 C 246.46875 68.503906 245.859375 68.9375 245.859375 69.664062 C 245.859375 70.332031 246.410156 70.679688 248.148438 71.289062 C 250.84375 72.214844 251.976562 73.578125 252.003906 75.664062 C 252.003906 78.300781 249.917969 80.273438 245.859375 80.273438 C 244.003906 80.273438 242.351562 79.839844 241.277344 79.257812 Z M 242.058594 76.101562"/>
<path fill="#619cbc" d="M 254.667969 65.777344 L 259.074219 65.777344 L 259.074219 79.957031 L 254.667969 79.957031 Z M 259.21875 61.835938 C 259.21875 63.054688 258.292969 64.039062 256.84375 64.039062 C 255.453125 64.039062 254.523438 63.054688 254.550781 61.835938 C 254.523438 60.558594 255.453125 59.601562 256.871094 59.601562 C 258.292969 59.601562 259.191406 60.558594 259.21875 61.835938"/>
<path fill="#619cbc" d="M 262.609375 70.300781 C 262.609375 68.53125 262.550781 67.023438 262.492188 65.777344 L 266.320312 65.777344 L 266.523438 67.722656 L 266.609375 67.722656 C 267.191406 66.824219 268.640625 65.460938 270.988281 65.460938 C 273.886719 65.460938 276.0625 67.375 276.0625 71.546875 L 276.0625 79.957031 L 271.65625 79.957031 L 271.65625 72.097656 C 271.65625 70.273438 271.015625 69.027344 269.421875 69.027344 C 268.207031 69.027344 267.480469 69.867188 267.191406 70.679688 C 267.074219 70.96875 267.015625 71.375 267.015625 71.78125 L 267.015625 79.957031 L 262.609375 79.957031 Z M 262.609375 70.300781"/>
</svg>
